<svg xmlns="http://www.w3.org/2000/svg" width="64" height="64" viewBox="-5 -5 46 46">
	<clipPath id="clip">
		<rect width="36" height="36" rx="9" ry="9"/>
	</clipPath>
	<rect width="36" height="36" rx="9" ry="9" fill="#ccffff"/>
	<g clip-path="url(#clip)">
		<g transform="translate(4.5 4.5) scale(.75 .75)">
			<circle fill="#DD2E44" cx="18" cy="18" r="18"/>
			<circle fill="#FFF" cx="18" cy="18" r="13.5"/>
			<circle fill="#DD2E44" cx="18" cy="18" r="10"/>
			<circle fill="#FFF" cx="18" cy="18" r="6"/>
			<circle fill="#DD2E44" cx="18" cy="18" r="3"/>
		</g>
		<g transform="translate(2.75 15.25) scale(1.25 1.25)">
			<path fill="#3E721D" d="M17.68 22s1.937 7.873 1.187 9.373c-2.373 4.746-1.187 4.627 0 4.627h2.373c2.373 0-1.187-14-1.187-14H17.68zM5.255 19.387s-.436 7.993-1.187 9.493C1.695 33.626 1.695 36 2.882 36h2.373c1.186 0 1.187-4.154 1.187-5.34 0-1.187 1.187-8.603 1.187-8.603l-2.374-2.67z"/>
			<path fill="#77B255" d="M12.374 5.251c-2.068.017-4.209-.435-5.523 2.099-1.404 2.709-2.065 8.579.776 9.664 2.479.947 7.933-1.187 13.866 1.187 5.933 2.373 8.306 16.612 13.015 16.63 1.224.005 1.206 1.123.001 1.132-5.914.045-8.509-5.897-9.509-5.897 0 0 1 5.934 0 5.934h-4c-1 0 0-3.081 0-4.268v-1.667s-1.593 1.218-5.936 1.218C11.781 31.284 9 30.066 9 30.066S10 36 9 36H5.255c-1.678 0 .166-4.013 0-5.934-.102-1.182-.51-4.757-1.224-5.933-1.726-2.847-2.763-11.521-1.929-15.285.781-3.526 3.122-6.633 4.675-7.51C8.296.479 9.64-.162 12.968.373c1.775.285 3.591 2.922 2.89 4.274-.421.81-1.94.591-3.484.604z"/>
			<path d="M12.967 2.181c0 .328-.265.593-.593.593-.328 0-.593-.265-.593-.593s.265-.593.593-.593c.328 0 .593.266.593.593z"/>
			<path d="M10.218 18.485c.094.304-.076.626-.38.72-.304.094-.626-.076-.72-.38-.094-.304.076-.626.38-.72.304-.094.626.076.72.38zm3.874 1.248c.134.433-.108.892-.54 1.025-.432.134-.892-.108-1.026-.541-.134-.432.108-.892.541-1.025.432-.133.891.109 1.025.541zm-1.625-1.426c.071.23-.057.474-.288.545-.23.071-.474-.058-.545-.288-.071-.23.058-.474.288-.545.23-.071.474.058.545.288zm2.458-.331c.067.218-.054.448-.272.516-.217.067-.448-.054-.516-.272-.067-.218.054-.448.272-.516.218-.067.449.055.516.272zm2.843.35c.125.402-.101.829-.503.954s-.829-.1-.954-.503c-.125-.402.101-.829.503-.954.403-.125.83.101.954.503zm4.753 1.979c.08.258-.064.531-.322.61-.257.08-.531-.064-.61-.322-.08-.257.064-.531.322-.61.258-.08.531.065.61.322zm-5.854 0c.08.258-.064.531-.322.61-.257.08-.531-.064-.61-.322-.08-.257.064-.531.322-.61.257-.08.531.065.61.322zm4.218-1.306c.08.257-.064.531-.322.61-.257.08-.531-.064-.61-.322s.064-.531.322-.61c.257-.08.531.065.61.322zm-1.501.199c.118.381-.095.785-.476.903s-.785-.095-.903-.476.095-.785.476-.903.785.095.903.476z" fill="#5C913B"/>
		</g>
		<g transform="translate(4.5 4.5) scale(.75 .75)">
			<path opacity=".2" d="M18.24 18.282l13.144 11.754s-2.647 3.376-7.89 5.109L17.579 18.42l.661-.138z"/>
			<path fill="#FFAC33" d="M18.294 19c-.255 0-.509-.097-.704-.292-.389-.389-.389-1.018 0-1.407l.563-.563c.389-.389 1.018-.389 1.408 0 .388.389.388 1.018 0 1.407l-.564.563c-.194.195-.448.292-.703.292z"/>
			<path fill="#55ACEE" d="M24.016 6.981c-.403 2.079 0 4.691 0 4.691l7.054-7.388c.291-1.454-.528-3.932-1.718-4.238-1.19-.306-4.079.803-5.336 6.935zm5.003 5.003c-2.079.403-4.691 0-4.691 0l7.388-7.054c1.454-.291 3.932.528 4.238 1.718.306 1.19-.803 4.079-6.935 5.336z"/>
			<path fill="#3A87C2" d="M32.798 4.485L21.176 17.587c-.362.362-1.673.882-2.51.046-.836-.836-.419-2.08-.057-2.443L31.815 3.501s.676-.635 1.159-.152-.176 1.136-.176 1.136z"/>
		</g>
	</g>
	<rect width="36" height="36" rx="9" ry="9" fill="none" stroke="#333333" stroke-width="2.25"/>
</svg>
